<svg id="Capa_1" data-name="Capa 1" xmlns="http://www.w3.org/2000/svg" viewBox="0 0 255.24 224.86"><defs><style>.cls-1,.cls-6{fill:#fff;}.cls-2,.cls-4{fill:#312783;}.cls-3{fill:#efb814;}.cls-3,.cls-4,.cls-6{stroke:#312783;stroke-miterlimit:10;}.cls-5{fill:#8e6f64;}</style></defs><path class="cls-1" d="M127.56,224.36a7,7,0,0,1-3.56-1.05c-32.32-18.89-65.85-40.74-92.1-72.47-16.55-20-26.39-40.27-30.11-62C-3,60.91,5.52,38.09,27.08,21.05c3.63-2.87,2.44-4.91.06-7.94S24,8.05,24.49,6.38s2.44-2.89,6.17-4A50.37,50.37,0,0,1,44.55.5,70,70,0,0,1,65.66,4.08,101.69,101.69,0,0,0,80,7.47c20,3.17,34.9,11.71,45.62,26.09.85,1.14,1.47,1.67,2,1.67s1.05-.52,1.78-1.59c11.2-16.3,34.5-27.25,58-27.25a59.29,59.29,0,0,1,20.16,3.27A74.59,74.59,0,0,1,239.42,32c3.32,3.94,1.89,6.59.11,8.12a4.56,4.56,0,0,1-3,1.23c-1.49,0-3-.9-4.58-2.75-8.73-10.2-18.47-16.78-29.76-20.12a55.35,55.35,0,0,0-15.37-2.07c-18.14,0-43.39,8.28-54.85,31.63-.87,1.78-.4,3.06.14,4.55q.13.33.24.66c3.1,9,6.05,18.59,5.2,28.8a20.55,20.55,0,0,1-.94,5c-1.62,4.91-3.59,6.91-6.79,6.91a15.42,15.42,0,0,1-5.47-1.33,21.15,21.15,0,0,1-2.64-1.35c-1.67-1-3.24-1.87-5.17-1.87h-.15l.86,1A48.08,48.08,0,0,1,120.41,94l.24.33c1.38,1.85,3.09,4.15,1.23,7a6.48,6.48,0,0,1-5.75,2.93,11.47,11.47,0,0,1-1.79-.15c-4.1-.64-7.74-2.33-11.73-4.31q-6.27-3.11-12.52-6.24c-6.07-3-12.36-6.19-18.57-9.22a57.32,57.32,0,0,0-14.93-4.87,35.22,35.22,0,0,0-6.39-.63C39.43,78.8,32.68,85,30.15,97.3A72.07,72.07,0,0,0,29,107.06c-.48,7.21-.48,7.21,6.56,8.54,4.52.85,9.2,1.36,13.72,1.84,1.82.2,3.64.39,5.45.61s5.31.64,5.79,4c.36,2.56-1.86,3.92-3.64,5l-3.06,1.89c-2.72,1.67-5.53,3.39-8.21,5.21a13.26,13.26,0,0,0-5.06,6.23c-.76,2-.75,3.7,0,4.86s2.17,1.68,4.09,1.68h.47c6.89-.32,13.1-3.21,19.11-6,1.34-.62,2.67-1.24,4-1.83a30.29,30.29,0,0,1,12.2-3c5,0,9.44,1.78,13.73,5.44a15.33,15.33,0,0,0,10.16,3.89,19.3,19.3,0,0,0,8-1.85c1.5-.68,3-1.44,4.44-2.18a55.31,55.31,0,0,1,8.67-3.82,23.36,23.36,0,0,1,6.92-1.2,11.56,11.56,0,0,1,6.93,2.08,19.9,19.9,0,0,0,11.88,4.16c3.91,0,8-1.24,12.58-3.78a19.67,19.67,0,0,1,9.64-2.72c4.68,0,9.34,1.93,14.24,5.9,3.24,2.63,5.18,3.61,7.13,3.61s4.17-1.07,7-2.79l.74-.44c4.52-2.73,9.19-5.55,14.72-5.55a16.37,16.37,0,0,1,2.87.25l.36,0c.78,0,1.2-.53,1.8-1.41l.08-.1c16.65-23.8,23.59-45.77,21.83-69.15a23.17,23.17,0,0,0-.53-3.84c-.38-1.49-.82-2.94-1.34-4.62q-.24-.8-.51-1.65c-8.37,6.24-17,12.67-26,18.41-6.54,4.16-15.23,9.54-24.42,14.32l-.68.33c-1.4.67-2.33,1.1-1.89,2.94,1.12,4.79.26,9.28-2.42,12.66-2.79,3.53-7.24,5.47-12.52,5.47-.62,0-1.25,0-1.88-.08s-1.19-.07-1.76-.07c-5.62,0-9.63,2.49-13.14,5.18a39.94,39.94,0,0,1-8.17,4.88,12.4,12.4,0,0,1-5,1.11,10,10,0,0,1-9.71-7.31,9.71,9.71,0,0,1,.83-7.57,12.39,12.39,0,0,1,7.54-5.89,5.62,5.62,0,0,1,1.63-.26,3.16,3.16,0,0,1,3.06,2.14c.56,1.32.63,3.18-2.2,4.57l-.25.12a12.09,12.09,0,0,0-3,1.81,2.91,2.91,0,0,0-.75,3.51,2.73,2.73,0,0,0,2.47,1.75,3,3,0,0,0,.64-.08c4.94-1.09,8.84-4.22,12.61-7.24.89-.71,1.77-1.42,2.68-2.11a4.19,4.19,0,0,0,.05-1.63c0-.28,0-.55,0-.79,0-.86-.06-1.72-.1-2.59a42.32,42.32,0,0,1-.09-4.37c.41-9.13,6-15.27,14-15.27a18.3,18.3,0,0,1,8.27,2.13,8.32,8.32,0,0,0,3.84,1.08,8.06,8.06,0,0,0,3.84-1.12A345.27,345.27,0,0,0,244.9,44.68l.73-.6c1-.85,2.08-1.72,3.19-2.5a4.54,4.54,0,0,1,2.61-1,3.09,3.09,0,0,1,2.43,1.32,3.36,3.36,0,0,1,.85,2.67A3.52,3.52,0,0,1,253,46.87c-3,2-2.38,4-1.41,7.11l.07.24c4.49,14.45,3.82,30.2-2.11,49.58-6.08,19.84-17.52,38.2-36,57.79-24.62,26.1-54.22,45.09-82.54,61.74A6.77,6.77,0,0,1,127.56,224.36Z"/><path class="cls-2" d="M44.55,1a70.26,70.26,0,0,1,21,3.55A100.13,100.13,0,0,0,79.94,8c18.35,2.91,34,10.72,45.3,25.9.92,1.23,1.64,1.87,2.36,1.87s1.36-.59,2.19-1.81c11.86-17.26,36-27,57.58-27a59.07,59.07,0,0,1,20,3.24A73.54,73.54,0,0,1,239,32.33c2,2.4,2.9,5.08.17,7.42a4,4,0,0,1-2.64,1.12c-1.57,0-3-1.16-4.2-2.58-8.14-9.51-17.9-16.7-30-20.28a55.37,55.37,0,0,0-15.52-2.09c-20.22,0-44.28,9.47-55.3,31.91-1.1,2.25-.25,3.82.36,5.6,3.2,9.27,6,18.61,5.18,28.59a21.45,21.45,0,0,1-.92,4.84c-1.51,4.56-3.29,6.56-6.32,6.56a14.91,14.91,0,0,1-5.28-1.29c-2.62-1-4.88-3.26-8-3.26a6.8,6.8,0,0,0-1.17.11c1.64,1.87,3.26,3.5,4.6,5.32,1.45,2,3.23,4.06,1.46,6.72a6,6,0,0,1-5.33,2.7,10.05,10.05,0,0,1-1.71-.15c-4.13-.64-7.89-2.43-11.59-4.26C92.46,94.18,82.14,88.92,71.74,83.85a58.29,58.29,0,0,0-15.06-4.92,36.17,36.17,0,0,0-6.48-.63c-11.06,0-18,6.32-20.54,18.9A73.33,73.33,0,0,0,28.48,107c-.5,7.39-.49,7.66,7,9.07,6.33,1.2,12.79,1.69,19.2,2.46,2.43.29,5,.86,5.35,3.56.34,2.4-1.93,3.6-3.78,4.75-3.65,2.27-7.35,4.47-10.91,6.87a13.89,13.89,0,0,0-5.24,6.47c-1.67,4.29.2,7.22,4.59,7.22h.49c8.5-.4,15.81-4.56,23.3-7.87a29.92,29.92,0,0,1,12-3c4.57,0,9,1.56,13.4,5.32a15.87,15.87,0,0,0,10.49,4,20,20,0,0,0,8.16-1.89c4.36-2,8.42-4.54,13.05-6a23.06,23.06,0,0,1,6.77-1.18,11,11,0,0,1,6.64,2,20.48,20.48,0,0,0,12.17,4.25c4.27,0,8.51-1.44,12.82-3.85a19.09,19.09,0,0,1,9.4-2.65c4.88,0,9.47,2.18,13.92,5.79,3.11,2.52,5.21,3.72,7.45,3.72,2,0,4.17-1,7.28-2.86,4.78-2.88,9.51-5.92,15.2-5.92a16.87,16.87,0,0,1,2.79.24,2.25,2.25,0,0,0,.44,0c1.13,0,1.68-.86,2.29-1.72,14.6-20.86,23.88-43.4,21.92-69.48a23.42,23.42,0,0,0-.55-3.92c-.54-2.17-1.26-4.31-2.05-7-8.95,6.67-17.54,13.07-26.59,18.82-8,5.06-16,10-24.39,14.3-1.59.83-3.43,1.24-2.82,3.83,2.3,9.78-4.07,17.51-14.45,17.51-.6,0-1.21,0-1.84-.08s-1.22-.07-1.8-.07c-5.38,0-9.35,2.14-13.44,5.29a39.22,39.22,0,0,1-8.07,4.81A11.92,11.92,0,0,1,143.8,121a9.48,9.48,0,0,1-9.23-7c-1.67-5.35,2.05-11.14,8-12.83a5.3,5.3,0,0,1,1.49-.24,2.66,2.66,0,0,1,2.6,1.83c.8,1.89-.25,3.09-2,3.93a13.11,13.11,0,0,0-3.34,2,3.37,3.37,0,0,0-.86,4.09,3.22,3.22,0,0,0,2.92,2,3.33,3.33,0,0,0,.75-.09c6.2-1.38,10.65-5.76,15.48-9.44.5-.38.23-1.86.21-2.83,0-2.31-.29-4.63-.19-6.93.41-9.12,6.09-14.79,13.48-14.79a17.72,17.72,0,0,1,8,2.08A8.94,8.94,0,0,0,185.29,84a8.45,8.45,0,0,0,4.07-1.18,348.7,348.7,0,0,0,55.86-37.74c1.28-1,2.54-2.13,3.89-3.09a4.22,4.22,0,0,1,2.32-.94,2.6,2.6,0,0,1,2,1.13,2.69,2.69,0,0,1-.7,4.28c-3.43,2.22-2.55,4.68-1.55,7.92,5.17,16.63,2.86,33.07-2.11,49.28-6.84,22.35-20,40.79-35.88,57.6-23.91,25.34-52.67,44.15-82.44,61.65a6.29,6.29,0,0,1-3.23,1,6.55,6.55,0,0,1-3.31-1c-34-19.86-66.55-41.63-92-72.34-15-18.09-26-38.19-30-61.73-4.69-27.41,3.17-50,25.1-67.36,4.11-3.25,2.42-5.75.14-8.64-4.3-5.47-3.62-7.92,3.26-9.9A49.58,49.58,0,0,1,44.55,1m0-1a50.68,50.68,0,0,0-14,1.94c-4,1.13-5.9,2.42-6.5,4.29s.22,4,2.73,7.19c2.31,2.94,3.36,4.59,0,7.23C5.05,37.82-3.52,60.8,1.3,89,5,110.75,14.91,131.09,31.52,151.16c26.3,31.79,59.87,53.67,92.23,72.58a7.48,7.48,0,0,0,3.81,1.12,7.28,7.28,0,0,0,3.74-1.1c28.35-16.66,58-35.69,82.65-61.83,18.54-19.65,30-38.07,36.12-58,6-19.47,6.63-35.32,2.11-49.87l-.08-.24c-1-3.32-1.38-4.86,1.21-6.54a4,4,0,0,0,1.89-2.68,3.82,3.82,0,0,0-.95-3.07,3.59,3.59,0,0,0-2.82-1.5,5,5,0,0,0-2.9,1.13c-1.12.79-2.19,1.67-3.22,2.52l-.73.6a344.31,344.31,0,0,1-55.69,37.64,7.54,7.54,0,0,1-3.6,1.06,8,8,0,0,1-3.61-1,18.79,18.79,0,0,0-8.5-2.19c-8.24,0-14.06,6.33-14.48,15.74a43.43,43.43,0,0,0,.09,4.43c0,.84.09,1.72.1,2.57a8.17,8.17,0,0,0,.05.82,8,8,0,0,1,0,1.28c-.87.67-1.74,1.36-2.58,2-3.89,3.12-7.58,6.07-12.4,7.15a2.46,2.46,0,0,1-.53.06,2.25,2.25,0,0,1-2-1.46,2.36,2.36,0,0,1,.64-2.93,11.39,11.39,0,0,1,2.84-1.73l.25-.12c3.35-1.64,3-4,2.44-5.22a3.66,3.66,0,0,0-3.52-2.44,6.63,6.63,0,0,0-1.77.27,12.86,12.86,0,0,0-7.84,6.15,10.2,10.2,0,0,0-.87,8A10.45,10.45,0,0,0,143.8,122a13.09,13.09,0,0,0,5.24-1.15,40.47,40.47,0,0,0,8.27-4.94c3.43-2.64,7.36-5.08,12.83-5.08.56,0,1.14,0,1.72.07s1.29.08,1.92.08c5.44,0,10-2,12.92-5.66s3.66-8.15,2.5-13.08c-.32-1.38.13-1.67,1.62-2.38l.7-.34c9.21-4.78,17.91-10.18,24.45-14.34,8.84-5.62,17.31-11.89,25.51-18l.3,1c.52,1.68,1,3.12,1.33,4.6a21.56,21.56,0,0,1,.52,3.75c1.75,23.25-5.15,45.12-21.74,68.82l-.08.11c-.59.85-.88,1.19-1.39,1.19l-.27,0a17.5,17.5,0,0,0-3-.26c-5.67,0-10.4,2.86-15,5.62l-.74.45c-2.77,1.67-4.87,2.71-6.76,2.71s-3.67-1-6.82-3.5c-5-4-9.75-6-14.55-6a20.23,20.23,0,0,0-9.89,2.78c-4.48,2.5-8.51,3.72-12.33,3.72A19.46,19.46,0,0,1,139.53,138a12,12,0,0,0-7.22-2.18,24,24,0,0,0-7.07,1.22,56.46,56.46,0,0,0-8.75,3.86c-1.44.73-2.93,1.49-4.41,2.16a18.87,18.87,0,0,1-7.75,1.81,14.86,14.86,0,0,1-9.84-3.77c-4.38-3.74-9-5.56-14-5.56a30.89,30.89,0,0,0-12.4,3c-1.34.6-2.7,1.23-4,1.84-6,2.77-12.14,5.63-18.93,5.95h-.45c-1.75,0-3-.5-3.68-1.46s-.69-2.58,0-4.39a12.81,12.81,0,0,1,4.87-6c2.68-1.81,5.49-3.53,8.2-5.2l2.68-1.65.37-.23c1.81-1.11,4.28-2.62,3.87-5.51-.52-3.73-4.37-4.19-6.22-4.42s-3.66-.41-5.45-.6c-4.52-.49-9.18-1-13.69-1.84-3.5-.66-5.21-1.07-5.84-1.91s-.53-2.85-.31-6.11a72.64,72.64,0,0,1,1.17-9.69c2.51-12.18,8.91-18.1,19.56-18.1a35.12,35.12,0,0,1,6.3.62,57.21,57.21,0,0,1,14.8,4.83c6.21,3,12.49,6.17,18.57,9.21q6.25,3.14,12.51,6.25c4,2,7.72,3.7,11.88,4.35a12.54,12.54,0,0,0,1.87.16,7,7,0,0,0,6.17-3.15c2-3.09.14-5.66-1.25-7.53l-.24-.33c-1-1.3-2-2.47-3.16-3.72h0a12.44,12.44,0,0,1,3.85,1.69,20.94,20.94,0,0,0,2.71,1.39,15.89,15.89,0,0,0,5.65,1.36c4.29,0,6.08-3.67,7.27-7.25a21.56,21.56,0,0,0,1-5.07c.86-10.3-2.11-20-5.22-29-.08-.23-.16-.45-.25-.67-.52-1.44-.94-2.57-.16-4.16,11.36-23.14,36.4-31.35,54.4-31.35a54.67,54.67,0,0,1,15.23,2c11.2,3.31,20.85,9.84,29.52,20,1.69,2,3.31,2.93,5,2.93a5,5,0,0,0,3.29-1.36c1.61-1.38,3.73-4.35,0-8.82a75,75,0,0,0-32.1-22.5,59.75,59.75,0,0,0-20.33-3.3c-23.65,0-47.11,11-58.4,27.47-.87,1.27-1.27,1.37-1.37,1.37s-.57-.14-1.56-1.47C115.24,18.77,100.21,10.17,80.1,7A99.34,99.34,0,0,1,65.81,3.6,70.7,70.7,0,0,0,44.55,0Z"/><path class="cls-3" d="M116.17,97.62c-3.42.31-5.88-1.17-8.34-2.4-7.23-3.65-14.39-7.44-21.58-11.17-1.3-.68-2.6-1.15-3.09-2.9-1.79-6.3-2.7-12.64-1.5-19.14,1.08-5.88,4.08-10.43,9.73-12.92,2-.87,3.77-2,2.65-4.42S91,42.9,89,43.78c-8.74,3.75-12.56,10.85-13.62,19.78a45.21,45.21,0,0,0,.94,15.31c-6-1.75-11.32-4.34-17.05-5.61-19-4.22-32.09,4.47-35.73,23.79-1.29,6.86-1.17,13.74-1.05,21.91C16.87,109.51,14,100.32,12,90.9,5.2,59.55,17.29,34.79,45.67,20.69,69.48,8.87,113.72,19,125.11,52.41c2.94,8.63,6,17.17,6.12,26.42a24.52,24.52,0,0,1-.23,4.46c-.56,3.27-1.53,5-5.43,2.71-5.52-3.31-11.35-6.2-18-6.48-1.65-.07-3.36-.41-4.39,1.41s.06,3.2,1,4.53A59.61,59.61,0,0,0,116.17,97.62Z"/><path class="cls-4" d="M47.21,153.5c10-1.57,18.33-6.56,27.31-9.82,5.44-2,10.29-1.41,14.83,2.37,8.6,7.16,17.79,8,27.57,2.35a63.55,63.55,0,0,1,7.6-3.59c5.39-2.24,10.71-2.19,15.63,1.22,6.31,4.38,12.83,4.79,19.69,1.49,1.93-.93,3.91-1.76,5.83-2.71,6.31-3.12,12.09-2.33,17.58,2,9.05,7.21,12.1,7.33,22.29,1.36,2.14-1.26,4.29-2.52,6.52-3.58a8.83,8.83,0,0,1,4.06-.63c-7.7,8.27-13.36,18.65-24.82,22.88-4.36,1.61-8.52,2.38-12.57-1-6.37-5.34-13.2-5.56-20.11-1.06-5.1,3.33-9.47,3.7-14.82-.39-6.45-4.92-19.15-2-23.88,4.5a2.62,2.62,0,0,0,0,3.59,2.7,2.7,0,0,0,3.56.78c2.07-1,4-2.3,6.06-3.37,4.67-2.44,9.31-2.52,13.43,1,5.25,4.51,10.48,4,15.86.47,6.17-4.08,12.17-4.82,18.14.47,2.15,1.9,4.84,2.82,8.76,2.68C178,180.75,171,186.34,163.53,191.5c-10.59,7.36-21.48,14.24-32.57,20.81-1.6.95-3,2.4-5.34.94-9.88-6.26-19.86-12.34-30.08-18.66,5.59-3.09,6.9-3,12.51.45,7.63,4.7,18.45,2.82,24.18-4.14,1-1.21,1.22-2.51.42-3.63-1.12-1.6-2.89-1.6-4.43-.66-2.39,1.47-4.77,2.88-7.29,4.14-3.6,1.8-7,1.47-9.8-.81-6.2-5.05-12.44-4.57-18.88-.94a3.81,3.81,0,0,1-4.84-.34C74,178.45,60.52,168.26,49.1,155.71,48.56,155.11,48.06,154.49,47.21,153.5Z"/><path class="cls-5" d="M165.6,97.84c0-9.15,4.44-12.78,12-10.17,5.16,1.78,6.84,10,2.82,13.87-2.27,2.15-10.63,3.68-13.25,2.19S166.24,99.53,165.6,97.84Z"/><path class="cls-3" d="M29.05,120.78c6.6,2,12.47,2.57,19.08,3.06-5.13,4.4-10.76,7.57-13.74,13.95C31.1,132.32,30.4,126.91,29.05,120.78Z"/><path class="cls-3" d="M52.63,8.06a121.92,121.92,0,0,0-14.39,6.38c-1.49.78-2.31.77-3-.95a47.69,47.69,0,0,0-2.68-4.91C39.42,6.74,46,7,52.63,8.06Z"/><path class="cls-6" d="M112.75,58a2.89,2.89,0,0,1-3.25-2.93c-.08-1.81,1.17-3,3.12-3.09a2.76,2.76,0,0,1,3.2,2.89A2.93,2.93,0,0,1,112.75,58Z"/></svg>